<svg width="24" height="24" viewBox="0 0 24 24" fill="none" xmlns="http://www.w3.org/2000/svg">
<path d="M8.07074 3.15669C6.89814 2.86007 5.66917 2.98591 4.70629 3.52297C3.72536 4.06902 3.03759 5.03752 3.00376 6.33298C2.9519 8.35763 3.42207 11.0744 5.2892 14.263C7.13266 17.4124 9.16779 19.3 10.8568 20.4213C11.9234 21.1302 13.1016 21.1493 14.1085 20.6875C15.1007 20.2325 15.9057 19.3235 16.324 18.1966C16.4281 17.9163 16.4699 17.6169 16.4466 17.3189C16.4232 17.021 16.3352 16.7316 16.1887 16.4708L15.1131 14.5585C14.7824 13.97 14.2503 13.5196 13.6139 13.2898C12.9775 13.06 12.2794 13.0661 11.6472 13.3069L10.8962 13.5934C10.5321 13.7316 10.1972 13.6676 10.0078 13.4811C9.37074 12.8575 8.91523 12.0114 8.7089 11.0991C8.64351 10.8115 8.77655 10.4722 9.09451 10.2328L9.77213 9.72275C10.32 9.31082 10.6981 8.71387 10.8358 8.04387C10.9734 7.37387 10.861 6.67686 10.5197 6.08355L9.42374 4.17912C9.27855 3.92699 9.08394 3.70654 8.8515 3.53089C8.61906 3.35524 8.35354 3.22798 8.07074 3.15669ZM4.13126 6.36332C4.15381 5.49369 4.59579 4.87236 5.2565 4.50383C5.93526 4.12519 6.86206 4.00947 7.79337 4.24541C7.92984 4.27976 8.05797 4.34113 8.17012 4.42587C8.28228 4.51061 8.37617 4.61699 8.44619 4.73866L9.541 6.64308C9.74576 6.99892 9.81327 7.41696 9.73087 7.81885C9.64847 8.22074 9.42181 8.57888 9.09338 8.82616L8.41575 9.33625C7.82945 9.77668 7.42355 10.5317 7.60846 11.3463C7.85877 12.4496 8.41237 13.4957 9.2174 14.2833C9.80596 14.8585 10.6448 14.8922 11.2988 14.6428L12.0497 14.3563C12.4291 14.2116 12.8481 14.2078 13.23 14.3456C13.612 14.4834 13.9314 14.7536 14.1299 15.1068L15.2044 17.0203C15.3397 17.2607 15.3623 17.5483 15.2664 17.8067C14.9395 18.6887 14.325 19.3505 13.6372 19.6662C12.9641 19.9752 12.203 19.9662 11.4825 19.4865C9.93675 18.4595 8.02113 16.6989 6.26223 13.6968C4.50221 10.6856 4.08503 8.17562 4.13239 6.36332H4.13126ZM15.0702 3.09602C14.9396 3.02361 14.7854 3.00589 14.6416 3.04677C14.4978 3.08764 14.3762 3.18377 14.3035 3.31399C14.2309 3.44421 14.2131 3.59786 14.2541 3.74114C14.2951 3.88442 14.3916 4.00559 14.5223 4.078L14.9552 4.31845C16.3078 5.06719 17.4583 6.13114 18.3085 7.41936C19.1587 8.70758 19.6832 10.1818 19.8373 11.7159L19.8734 12.0699C19.8776 12.1456 19.8973 12.2197 19.931 12.2877C19.9648 12.3557 20.0121 12.4162 20.0699 12.4655C20.1278 12.5148 20.1951 12.5519 20.2678 12.5746C20.3404 12.5972 20.4169 12.605 20.4927 12.5974C20.5684 12.5898 20.6419 12.567 20.7085 12.5304C20.7752 12.4937 20.8337 12.444 20.8806 12.3842C20.9274 12.3244 20.9617 12.2558 20.9812 12.1824C21.0007 12.1091 21.0051 12.0326 20.9941 11.9575L20.9592 11.6047C20.7871 9.8897 20.2009 8.24172 19.2506 6.80164C18.3002 5.36156 17.0141 4.17224 15.5021 3.33533L15.0702 3.09602ZM13.7488 6.10715C13.8258 5.97948 13.9506 5.88752 14.0956 5.85149C14.2407 5.81546 14.3941 5.83831 14.5223 5.91502L14.6621 5.99816C15.5722 6.54191 16.353 7.27612 16.9504 8.15005C17.5479 9.02397 17.9477 10.0168 18.1224 11.0598L18.172 11.3598C18.1862 11.4333 18.1855 11.509 18.1699 11.5823C18.1543 11.6556 18.1241 11.725 18.0812 11.7865C18.0383 11.848 17.9835 11.9003 17.92 11.9404C17.8565 11.9805 17.7856 12.0075 17.7114 12.0199C17.6373 12.0322 17.5614 12.0297 17.4883 12.0124C17.4151 11.9951 17.3462 11.9634 17.2855 11.9192C17.2248 11.875 17.1737 11.8191 17.135 11.7549C17.0963 11.6906 17.0709 11.6193 17.0603 11.5452L17.0095 11.2452C16.862 10.3628 16.524 9.52282 16.0188 8.78335C15.5137 8.04387 14.8534 7.4225 14.0837 6.96217L13.9439 6.87791C13.8803 6.84 13.8249 6.78999 13.7808 6.73073C13.7367 6.67148 13.7047 6.60414 13.6867 6.53256C13.6687 6.46099 13.665 6.38658 13.6758 6.31358C13.6867 6.24059 13.7119 6.17044 13.7499 6.10715H13.7488Z" fill="white"/>
</svg>
