<svg width="39" height="52" viewBox="0 0 39 52" fill="none" xmlns="http://www.w3.org/2000/svg">
<circle cx="19.3964" cy="25.8013" r="13.0951" fill="white"/>
<path d="M36.7182 10.2946C35.8625 10.2946 35.1624 10.9947 35.1624 11.8504V17.1922C34.4104 15.7919 33.5028 14.4954 32.4137 13.3544V8.73873C32.4137 7.88301 31.7135 7.18287 30.8578 7.18287C30.0021 7.18287 29.302 7.88301 29.302 8.73873V10.6835C28.4462 10.0871 27.5127 9.59445 26.5533 9.15362V4.84909C26.5533 3.99337 25.8532 3.29323 24.9974 3.29323C24.1417 3.29323 23.4416 3.99337 23.4416 4.84909V8.09046C22.5599 7.88301 21.6264 7.72742 20.6929 7.64963V1.55586C20.6929 0.700136 19.9928 0 19.137 0C18.2813 0 17.5812 0.700136 17.5812 1.55586V7.64963C16.6477 7.72742 15.7401 7.88301 14.8325 8.09046V4.84909C14.8325 3.99337 14.1324 3.29323 13.2766 3.29323C12.4209 3.29323 11.7208 3.99337 11.7208 4.84909V9.15362C10.7613 9.59445 9.85376 10.0871 8.97211 10.6835V8.50535C8.97211 7.64963 8.27197 6.94949 7.41625 6.94949C6.56053 6.94949 5.86039 7.64963 5.86039 8.50535V13.3544C4.79722 14.4954 3.86371 15.7919 3.11171 17.1922V11.8504C3.11171 10.9947 2.41158 10.2946 1.55586 10.2946C0.700136 10.2946 0 10.9947 0 11.8504V39.5188C0 40.3745 0.700136 41.0746 1.55586 41.0746C2.41158 41.0746 3.11171 40.3745 3.11171 39.5188V34.177C3.86371 35.5773 4.77129 36.8738 5.86039 38.0148V42.8379C5.86039 43.6936 6.56053 44.3938 7.41625 44.3938C8.27197 44.3938 8.97211 43.6936 8.97211 42.8379V40.6597C9.82783 41.2302 10.7613 41.7488 11.7208 42.1896V46.4942C11.7208 47.3499 12.4209 48.05 13.2766 48.05C14.1324 48.05 14.8325 47.3499 14.8325 46.4942V43.2528C15.7142 43.4603 16.6477 43.6158 17.5812 43.6936V49.7874C17.5812 50.6431 18.2813 51.3433 19.137 51.3433C19.9928 51.3433 20.6929 50.6431 20.6929 49.7874V43.6936C21.6264 43.6158 22.534 43.4603 23.4416 43.2528V46.4942C23.4416 47.3499 24.1417 48.05 24.9974 48.05C25.8532 48.05 26.5533 47.3499 26.5533 46.4942V42.1896C27.5127 41.7488 28.4203 41.2561 29.302 40.6597V42.6045C29.302 43.4603 30.0021 44.1604 30.8578 44.1604C31.7135 44.1604 32.4137 43.4603 32.4137 42.6045V37.9888C33.4768 36.8479 34.4104 35.5513 35.1624 34.1511V39.4928C35.1624 40.3485 35.8625 41.0487 36.7182 41.0487C37.5739 41.0487 38.2741 40.3485 38.2741 39.4928V30.4429V11.8504C38.2741 10.9947 37.5739 10.2946 36.7182 10.2946ZM28.0573 27.1238L15.0918 34.6178C14.4435 35.0068 13.8212 35.0327 13.3804 34.8253C12.8877 34.5659 12.6024 34.0214 12.6024 33.1916V18.2035C12.6024 16.6217 13.7175 15.9735 15.0918 16.7514L28.0573 24.2454C29.4316 25.0234 29.4316 26.3458 28.0573 27.1238Z" fill="#FF3434"/>
<path d="M29.3279 42.6305C29.3279 43.4862 30.028 44.1864 30.8838 44.1864C31.7395 44.1864 32.4396 43.4862 32.4396 42.6305V38.0148C33.5028 36.8739 34.4363 35.5773 35.1883 34.177V39.5188C35.1883 40.3745 35.8884 41.0747 36.7441 41.0747C37.5999 41.0747 38.3 40.3745 38.3 39.5188V30.4689L28.0832 24.2455C29.4576 25.0234 29.4576 26.3459 28.0832 27.1238L15.1177 34.6179C14.4695 35.0068 13.8471 35.0328 13.4063 34.8253L26.6051 42.2156C27.5646 41.7748 28.4722 41.2821 29.3538 40.6857V42.6305H29.3279Z" fill="#C52B22"/>
</svg>
