<svg width="29" height="28" viewBox="0 0 29 28" fill="none" xmlns="http://www.w3.org/2000/svg">
<rect x="0.959991" width="27.06" height="27.06" rx="13.53" fill="white" fill-opacity="0.1"/>
<path d="M14.49 8.19995C15.9381 8.19995 16.1188 8.20528 16.687 8.23193C17.2547 8.25858 17.6411 8.34759 17.9811 8.47978C18.3329 8.61516 18.6293 8.79851 18.9256 9.09433C19.1966 9.36077 19.4064 9.68307 19.5402 10.0388C19.6718 10.3783 19.7614 10.7653 19.788 11.3329C19.8131 11.9011 19.82 12.0818 19.82 13.53C19.82 14.9781 19.8147 15.1588 19.788 15.727C19.7614 16.2946 19.6718 16.681 19.5402 17.0211C19.4067 17.377 19.197 17.6994 18.9256 17.9656C18.6591 18.2365 18.3368 18.4462 17.9811 18.5801C17.6416 18.7118 17.2547 18.8013 16.687 18.828C16.1188 18.853 15.9381 18.86 14.49 18.86C13.0418 18.86 12.8611 18.8546 12.293 18.828C11.7253 18.8013 11.3389 18.7118 10.9988 18.5801C10.643 18.4466 10.3206 18.2368 10.0544 17.9656C9.78328 17.6992 9.57356 17.3769 9.43981 17.0211C9.30763 16.6816 9.21862 16.2946 9.19197 15.727C9.16692 15.1588 9.15999 14.9781 9.15999 13.53C9.15999 12.0818 9.16532 11.9011 9.19197 11.3329C9.21862 10.7647 9.30763 10.3789 9.43981 10.0388C9.57319 9.68285 9.78296 9.36046 10.0544 9.09433C10.3207 8.82315 10.643 8.61341 10.9988 8.47978C11.3389 8.34759 11.7248 8.25858 12.293 8.23193C12.8611 8.20688 13.0418 8.19995 14.49 8.19995ZM14.49 10.865C13.7832 10.865 13.1053 11.1457 12.6055 11.6455C12.1058 12.1453 11.825 12.8231 11.825 13.53C11.825 14.2368 12.1058 14.9146 12.6055 15.4144C13.1053 15.9142 13.7832 16.195 14.49 16.195C15.1968 16.195 15.8746 15.9142 16.3744 15.4144C16.8742 14.9146 17.155 14.2368 17.155 13.53C17.155 12.8231 16.8742 12.1453 16.3744 11.6455C15.8746 11.1457 15.1968 10.865 14.49 10.865ZM17.9545 10.7317C17.9545 10.555 17.8843 10.3855 17.7593 10.2606C17.6344 10.1356 17.4649 10.0655 17.2882 10.0655C17.1115 10.0655 16.9421 10.1356 16.8171 10.2606C16.6922 10.3855 16.622 10.555 16.622 10.7317C16.622 10.9084 16.6922 11.0779 16.8171 11.2028C16.9421 11.3278 17.1115 11.398 17.2882 11.398C17.4649 11.398 17.6344 11.3278 17.7593 11.2028C17.8843 11.0779 17.9545 10.9084 17.9545 10.7317ZM14.49 11.931C14.9141 11.931 15.3208 12.0994 15.6207 12.3993C15.9205 12.6992 16.089 13.1059 16.089 13.53C16.089 13.954 15.9205 14.3607 15.6207 14.6606C15.3208 14.9605 14.9141 15.129 14.49 15.129C14.0659 15.129 13.6592 14.9605 13.3593 14.6606C13.0595 14.3607 12.891 13.954 12.891 13.53C12.891 13.1059 13.0595 12.6992 13.3593 12.3993C13.6592 12.0994 14.0659 11.931 14.49 11.931Z" fill="white"/>
</svg>
