<svg width="29" height="28" viewBox="0 0 29 28" fill="none" xmlns="http://www.w3.org/2000/svg">
<rect x="0.979996" width="27.06" height="27.06" rx="13.53" fill="white" fill-opacity="0.1"/>
<path d="M19.8395 10.4144C19.4402 10.591 19.0168 10.707 18.5833 10.7585C19.0403 10.4852 19.3822 10.0551 19.5456 9.54837C19.1167 9.80358 18.6466 9.98243 18.1566 10.0792C17.8274 9.72701 17.3912 9.49344 16.9156 9.4148C16.44 9.33616 15.9518 9.41684 15.5268 9.64431C15.1018 9.87178 14.7638 10.2333 14.5655 10.6726C14.3671 11.112 14.3195 11.6045 14.43 12.0737C13.5604 12.0302 12.7096 11.8042 11.933 11.4105C11.1564 11.0167 10.4712 10.4641 9.92207 9.78841C9.72768 10.1223 9.62553 10.5018 9.62608 10.8882C9.62608 11.6465 10.012 12.3164 10.5988 12.7086C10.2515 12.6977 9.91194 12.6039 9.6083 12.4351V12.4623C9.6084 12.9673 9.78316 13.4568 10.1029 13.8477C10.4227 14.2385 10.8678 14.5068 11.3628 14.607C11.0405 14.6943 10.7025 14.7072 10.3744 14.6446C10.514 15.0793 10.786 15.4595 11.1524 15.7319C11.5188 16.0043 11.9612 16.1553 12.4176 16.1638C11.964 16.5201 11.4445 16.7835 10.889 16.9389C10.3334 17.0943 9.7527 17.1387 9.17999 17.0696C10.1797 17.7125 11.3435 18.0538 12.5322 18.0527C16.5553 18.0527 18.7554 14.7199 18.7554 11.8295C18.7554 11.7354 18.7528 11.6402 18.7486 11.5471C19.1768 11.2376 19.5464 10.8542 19.84 10.4149L19.8395 10.4144Z" fill="white"/>
</svg>
