<svg width="28" height="28" viewBox="0 0 28 28" fill="none" xmlns="http://www.w3.org/2000/svg">
<rect x="0.940002" width="27.06" height="27.06" rx="13.53" fill="white" fill-opacity="0.1"/>
<path d="M19.5564 11.1773C19.8 12.0348 19.8 13.8248 19.8 13.8248C19.8 13.8248 19.8 15.6148 19.5564 16.4722C19.421 16.9462 19.025 17.3191 18.5235 17.4452C17.6126 17.6742 14.47 17.6742 14.47 17.6742C14.47 17.6742 11.329 17.6742 10.4165 17.4452C9.91285 17.3172 9.51736 16.9448 9.38358 16.4722C9.14 15.6148 9.14 13.8248 9.14 13.8248C9.14 13.8248 9.14 12.0348 9.38358 11.1773C9.51896 10.7034 9.91498 10.3305 10.4165 10.2044C11.329 9.97534 14.47 9.97534 14.47 9.97534C14.47 9.97534 17.6126 9.97534 18.5235 10.2044C19.0271 10.3324 19.4226 10.7048 19.5564 11.1773ZM13.404 15.5089L16.602 13.8248L13.404 12.1407V15.5089Z" fill="white"/>
</svg>
